<svg xmlns="http://www.w3.org/2000/svg" fill="none" viewBox="0 0 32 32"><path fill="url(#a)" d="M5 5a3 3 0 0 1 3-3h13a6 6 0 0 1 6 6v19a3 3 0 0 1-3 3H11a6 6 0 0 1-6-6V5z"/><path fill="url(#b)" d="M6 5a2 2 0 0 1 2-2h13a5 5 0 0 1 5 5v19a2 2 0 0 1-2 2H11a5 5 0 0 1-5-5V5z"/><path fill="url(#c)" d="M6 5a2 2 0 0 1 2-2h13a5 5 0 0 1 5 5v19a2 2 0 0 1-2 2H11a5 5 0 0 1-5-5V5z"/><path fill="url(#d)" d="M21.5 23a.5.5 0 0 1 0 1h-11a.5.5 0 0 1 0-1h11z"/><path fill="url(#e)" d="M21.5 20a.5.5 0 0 1 0 1h-11a.5.5 0 0 1 0-1h11z"/><path fill="url(#f)" d="M21.5 17a.5.5 0 0 1 0 1h-11a.5.5 0 0 1 0-1h11z"/><path fill="#D20112" fill-rule="evenodd" d="M11.5 8c.247 0 .605.07.917.294.337.243.583.643.583 1.206s-.246.963-.583 1.206c-.312.224-.67.294-.917.294H11v1.5a.5.5 0 0 1-1 0v-4l.01-.1a.5.5 0 0 1 .49-.4h1zm-.5 2h.5a.62.62 0 0 0 .333-.105c.08-.058.167-.158.167-.395 0-.237-.087-.337-.167-.395A.62.62 0 0 0 11.5 9H11v1zm4.5-2c.593 0 1.218.176 1.702.595.496.429.798 1.073.798 1.905 0 .832-.302 1.476-.798 1.905-.484.42-1.11.595-1.702.595h-1a.5.5 0 0 1-.5-.5v-4l.01-.1a.5.5 0 0 1 .49-.4h1zm-.5 4h.5c.407 0 .782-.121 1.048-.35.253-.22.452-.576.452-1.15s-.199-.93-.452-1.15c-.266-.229-.64-.35-1.048-.35H15v3z" clip-rule="evenodd"/><path fill="#D20112" d="M21.5 8a.5.5 0 0 1 0 1H20v1h1a.5.5 0 0 1 0 1h-1v1.5a.5.5 0 0 1-1 0v-4l.01-.1a.5.5 0 0 1 .49-.4h2z"/><defs><linearGradient id="a" x1="12.104" x2="16.851" y1="2" y2="29.972" gradientUnits="userSpaceOnUse"><stop stop-color="#BBB"/><stop offset="1" stop-color="#888"/></linearGradient><linearGradient id="b" x1="11.556" x2="15.786" y1="3" y2="29.035" gradientUnits="userSpaceOnUse"><stop stop-color="#fff"/><stop offset="1" stop-color="#EBEBEB"/></linearGradient><radialGradient id="c" cx="0" cy="0" r="1" gradientTransform="matrix(10.5556 20.5833 -15.8333 7.71875 12.389 9.77)" gradientUnits="userSpaceOnUse"><stop offset=".177" stop-color="#fff"/><stop offset="1" stop-color="#EFEFEF"/></radialGradient><linearGradient id="d" x1="13.875" x2="14.431" y1="17" y2="24.151" gradientUnits="userSpaceOnUse"><stop stop-color="#898989"/><stop offset="1" stop-color="#636262"/></linearGradient><linearGradient id="e" x1="13.875" x2="14.431" y1="17" y2="24.151" gradientUnits="userSpaceOnUse"><stop stop-color="#898989"/><stop offset="1" stop-color="#636262"/></linearGradient><linearGradient id="f" x1="13.875" x2="14.431" y1="17" y2="24.151" gradientUnits="userSpaceOnUse"><stop stop-color="#898989"/><stop offset="1" stop-color="#636262"/></linearGradient></defs></svg>