<svg width="20" height="20" viewBox="0 0 20 20" fill="none" xmlns="http://www.w3.org/2000/svg">
<path d="M9.99974 17.75C14.2796 17.75 17.749 14.2802 17.749 10C17.749 5.71979 14.2796 2.25 9.99974 2.25C5.71991 2.25 2.25043 5.71979 2.25043 10C2.25043 14.2802 5.71991 17.75 9.99974 17.75Z" fill="url(#paint0_linear_353_14401)"/>
<path d="M9.99974 17.75C14.2796 17.75 17.749 14.2802 17.749 10C17.749 5.71979 14.2796 2.25 9.99974 2.25C5.71991 2.25 2.25043 5.71979 2.25043 10C2.25043 14.2802 5.71991 17.75 9.99974 17.75Z" fill="url(#paint1_radial_353_14401)"/>
<path d="M9.99974 17.75C14.2796 17.75 17.749 14.2802 17.749 10C17.749 5.71979 14.2796 2.25 9.99974 2.25C5.71991 2.25 2.25043 5.71979 2.25043 10C2.25043 14.2802 5.71991 17.75 9.99974 17.75Z" fill="url(#paint2_radial_353_14401)" fill-opacity="0.5"/>
<path d="M9 7H4C2.89543 7 2 7.89543 2 9V14C2 15.1046 2.89543 16 4 16H9C10.1046 16 11 15.1046 11 14V9C11 7.89543 10.1046 7 9 7Z" fill="url(#paint3_radial_353_14401)"/>
<path d="M9 7H4C2.89543 7 2 7.89543 2 9V14C2 15.1046 2.89543 16 4 16H9C10.1046 16 11 15.1046 11 14V9C11 7.89543 10.1046 7 9 7Z" fill="url(#paint4_radial_353_14401)" fill-opacity="0.3"/>
<path d="M5.79832 12.3717V14H4.67065V9H6.41277C7.03653 9 7.51133 9.13598 7.83718 9.40795C8.16535 9.67992 8.32944 10.0832 8.32944 10.6179C8.32944 11.1688 8.14557 11.5988 7.77783 11.9079C7.41242 12.2171 6.92132 12.3717 6.30454 12.3717H5.79832ZM5.79832 9.86471V11.507H6.26963C6.54893 11.507 6.76422 11.4338 6.9155 11.2873C7.06679 11.1409 7.14243 10.9305 7.14243 10.6562C7.14243 10.4028 7.06795 10.2076 6.91899 10.0704C6.77236 9.93329 6.56173 9.86471 6.28708 9.86471H5.79832Z" fill="white"/>
<path d="M9.99902 2.25C14.2788 2.25 17.749 5.71979 17.749 10C17.749 11.419 17.365 12.7476 16.6992 13.8916L16.8213 13.6221C17.5879 11.92 16.3424 9.99414 14.4756 9.99414H11.3809C10.6141 9.99396 9.99251 9.37127 9.99316 8.60449L9.99609 5.52539C9.9977 3.65606 8.06761 2.40864 6.36426 3.17871L6.13867 3.28125C7.27549 2.62649 8.59298 2.25006 9.99902 2.25Z" fill="url(#paint5_linear_353_14401)"/>
<path d="M9.99902 2.25C14.2788 2.25 17.749 5.71979 17.749 10C17.749 11.419 17.365 12.7476 16.6992 13.8916L16.8213 13.6221C17.5879 11.92 16.3424 9.99414 14.4756 9.99414H11.3809C10.6141 9.99396 9.99251 9.37127 9.99316 8.60449L9.99609 5.52539C9.9977 3.65606 8.06761 2.40864 6.36426 3.17871L6.13867 3.28125C7.27549 2.62649 8.59298 2.25006 9.99902 2.25Z" fill="url(#paint6_radial_353_14401)"/>
<path d="M9.99902 2.25C14.2788 2.25 17.749 5.71979 17.749 10C17.749 11.419 17.365 12.7476 16.6992 13.8916L16.8213 13.6221C17.5879 11.92 16.3424 9.99414 14.4756 9.99414H11.3809C10.6141 9.99396 9.99251 9.37127 9.99316 8.60449L9.99609 5.52539C9.9977 3.65606 8.06761 2.40864 6.36426 3.17871L6.13867 3.28125C7.27549 2.62649 8.59298 2.25006 9.99902 2.25Z" fill="url(#paint7_radial_353_14401)" fill-opacity="0.8"/>
<path d="M9.99902 2.25C14.2788 2.25 17.749 5.71979 17.749 10C17.749 11.419 17.365 12.7476 16.6992 13.8916L16.8213 13.6221C17.5879 11.92 16.3424 9.99414 14.4756 9.99414H11.3809C10.6141 9.99396 9.99251 9.37127 9.99316 8.60449L9.99609 5.52539C9.9977 3.65606 8.06761 2.40864 6.36426 3.17871L6.13867 3.28125C7.27549 2.62649 8.59298 2.25006 9.99902 2.25Z" fill="url(#paint8_radial_353_14401)"/>
<path d="M9.99902 2.25C14.2788 2.25 17.749 5.71979 17.749 10C17.749 11.419 17.365 12.7476 16.6992 13.8916L16.8213 13.6221C17.5879 11.92 16.3424 9.99414 14.4756 9.99414H11.3809C10.6141 9.99396 9.99251 9.37127 9.99316 8.60449L9.99609 5.52539C9.9977 3.65606 8.06761 2.40864 6.36426 3.17871L6.13867 3.28125C7.27549 2.62649 8.59298 2.25006 9.99902 2.25Z" fill="url(#paint9_radial_353_14401)"/>
<defs>
<linearGradient id="paint0_linear_353_14401" x1="9.21344" y1="1.75659" x2="-0.281831" y2="10.8403" gradientUnits="userSpaceOnUse">
<stop offset="0.0582736" stop-color="#FF7F48"/>
<stop offset="1" stop-color="#E5495B"/>
</linearGradient>
<radialGradient id="paint1_radial_353_14401" cx="0" cy="0" r="1" gradientUnits="userSpaceOnUse" gradientTransform="translate(13.063 6.74736) rotate(135) scale(15.5601 26.1897)">
<stop offset="0.151523" stop-color="#AA1D2D"/>
<stop offset="0.380855" stop-color="#D12B18" stop-opacity="0.44"/>
<stop offset="0.601996" stop-color="#FF3C00" stop-opacity="0"/>
</radialGradient>
<radialGradient id="paint2_radial_353_14401" cx="0" cy="0" r="1" gradientUnits="userSpaceOnUse" gradientTransform="translate(-0.454462 16.2997) rotate(-25.2832) scale(14.7502 26.7221)">
<stop offset="0.4067" stop-color="#FF66FB"/>
<stop offset="1" stop-color="#EA3D01" stop-opacity="0"/>
</radialGradient>
<radialGradient id="paint3_radial_353_14401" cx="0" cy="0" r="1" gradientUnits="userSpaceOnUse" gradientTransform="translate(1.9989 7) rotate(45) scale(12.7279)">
<stop stop-color="#F8193E"/>
<stop offset="0.939062" stop-color="#920616"/>
</radialGradient>
<radialGradient id="paint4_radial_353_14401" cx="0" cy="0" r="1" gradientUnits="userSpaceOnUse" gradientTransform="translate(6.4989 12.4) rotate(90) scale(6.3 7.17188)">
<stop offset="0.575893" stop-color="#FFB055" stop-opacity="0"/>
<stop offset="0.973806" stop-color="#FFF2BE"/>
</radialGradient>
<linearGradient id="paint5_linear_353_14401" x1="11.4763" y1="11.7144" x2="19.8072" y2="5.54299" gradientUnits="userSpaceOnUse">
<stop offset="0.310768" stop-color="#FF6E30"/>
<stop offset="0.634576" stop-color="#FFA05C"/>
</linearGradient>
<radialGradient id="paint6_radial_353_14401" cx="0" cy="0" r="1" gradientUnits="userSpaceOnUse" gradientTransform="translate(8.7118 10.9174) rotate(11.8407) scale(10.0033 9.54099)">
<stop offset="0.78593" stop-color="#FFA05C" stop-opacity="0"/>
<stop offset="0.904889" stop-color="#FFCE84"/>
</radialGradient>
<radialGradient id="paint7_radial_353_14401" cx="0" cy="0" r="1" gradientUnits="userSpaceOnUse" gradientTransform="translate(10.2811 9.87556) rotate(-33.2109) scale(10.1022 9.66274)">
<stop offset="0.295239" stop-color="#FF99E9"/>
<stop offset="0.727968" stop-color="#FF99E9" stop-opacity="0"/>
</radialGradient>
<radialGradient id="paint8_radial_353_14401" cx="0" cy="0" r="1" gradientUnits="userSpaceOnUse" gradientTransform="translate(9.14685 11.0575) rotate(-48.8783) scale(10.7572 9.82364)">
<stop stop-color="#FD6EF9"/>
<stop offset="0.637205" stop-color="#FF9944"/>
<stop offset="0.85186" stop-color="#FCC479"/>
</radialGradient>
<radialGradient id="paint9_radial_353_14401" cx="0" cy="0" r="1" gradientUnits="userSpaceOnUse" gradientTransform="translate(8.44301 3.27314) rotate(98.3908) scale(5.47628 12.3705)">
<stop offset="0.144283" stop-color="#FF8D13"/>
<stop offset="0.537266" stop-color="#FF7F29" stop-opacity="0"/>
</radialGradient>
</defs>
</svg>
